<svg width="48" height="48" viewBox="0 0 48 48" fill="none" xmlns="http://www.w3.org/2000/svg">
<path d="M24 31.5C28.1421 31.5 31.5 28.1421 31.5 24C31.5 19.8579 28.1421 16.5 24 16.5C19.8579 16.5 16.5 19.8579 16.5 24C16.5 28.1421 19.8579 31.5 24 31.5Z" stroke="white" stroke-width="2" stroke-linecap="round" stroke-linejoin="round"/>
<path d="M33.9563 39C30.6152 41.2183 26.629 42.2572 22.6302 41.952C18.6315 41.6469 14.8491 40.015 11.8834 37.3154C8.91765 34.6158 6.93839 31.0031 6.25968 27.0505C5.58096 23.098 6.24165 19.032 8.13692 15.4977C10.0322 11.9633 13.0535 9.16319 16.7214 7.5415C20.3893 5.91982 24.4937 5.5695 28.3834 6.54612C32.2731 7.52274 35.7252 9.77037 38.192 12.9324C40.6589 16.0944 41.9991 19.9896 42 24C42 28.1438 40.5 31.5 36.75 31.5C33 31.5 31.5 28.1438 31.5 24V16.5" stroke="white" stroke-width="2" stroke-linecap="round" stroke-linejoin="round"/>
</svg>
