<svg xmlns="http://www.w3.org/2000/svg" width="2020" height="422" fill="none"><path d="m130.706 362 55.147 49.687A35.256 35.256 0 0 0 210.639 422a35.812 35.812 0 0 0 24.785-10.313L290.571 362a33.527 33.527 0 0 1 21.068-10h-202a37.04 37.04 0 0 1 21.067 10ZM0 62C0 27.758 27.758 0 62 0h1896c34.24 0 62 27.758 62 62v228c0 34.242-27.76 62-62 62H62c-34.242 0-62-27.758-62-62V62Z" fill="#fff"/><path d="M396.052 244.877h-37.817v-107.56h-37.506l-.31 10.849c-1.55 69.744-13.639 99.501-48.666 99.501a49.575 49.575 0 0 1-14.259-2.48V213.57a24.6 24.6 0 0 0 5.27.62c15.808 0 21.388-21.388 22.008-75.633l.31-33.167h110.97v139.487ZM543.91 137.322h-64.785v107.561h-37.816V105.085H543.91v32.237ZM1059.7 244.877h-38.12v-75.633l-78.117 79.043h-12.399V105.079h37.817v76.254l78.419-79.354h12.4v142.898ZM1212.83 137.322h-43.09v107.561h-37.81V137.322h-43.09v-32.237h123.99v32.237ZM1398.5 244.877h-38.12v-67.264l-34.1 38.127h-12.71l-33.47-37.817v66.954h-37.82V101.979h12.4l65.4 73.154 66.03-73.154h12.39v142.898ZM1572.09 244.877h-38.13v-75.633l-78.11 79.043h-12.4V105.079h37.82v76.254l78.42-79.354h12.4v142.898ZM1710.34 244.883l-55.49-74.084v74.084h-37.81V105.085h37.81v65.094l53.01-65.094h43.08l-52.69 63.854 57.03 75.944h-44.94ZM636.902 101.979c-42.157 0-74.704 31.928-74.704 72.844 0 40.917 32.547 73.154 74.394 73.154 41.846 0 75.323-32.547 75.323-73.154 0-40.606-33.477-72.844-75.013-72.844Zm0 110.971c-20.768 0-36.267-15.809-36.267-37.817 0-22.008 15.189-38.437 36.267-38.437 20.458 0 36.267 16.429 36.267 38.437s-15.809 37.817-36.267 37.817ZM170.391 101.979a75.969 75.969 0 0 0-61.064 28.828l19.838 23.558c11.469-12.089 22.008-19.219 36.887-19.219 17.358 0 26.038 9.299 26.038 24.488v6.2h-35.027c-32.238 0-52.696 15.188-52.696 40.606 0 23.558 17.669 41.846 48.356 41.846a57.564 57.564 0 0 0 42.776-17.048v13.639h35.027v-83.073c-.31-39.677-24.488-59.825-60.135-59.825Zm21.699 90.512c0 16.429-13.329 27.588-29.448 27.588-11.779 0-20.148-5.58-20.148-15.189s7.129-14.259 19.528-14.259h30.068v1.86ZM826.914 101.979c-19.218 0-35.337 7.44-44.946 20.459v-17.359h-35.027v190.634h38.437v-64.475c9.919 10.849 24.488 17.049 41.846 17.049 39.367 0 67.884-31.308 67.884-73.464s-28.517-72.844-68.194-72.844Zm-6.819 111.591c-17.668 0-35.337-12.089-35.337-38.747s17.669-38.437 35.337-38.437c20.148 0 36.267 14.879 36.267 38.747 0 23.868-16.739 38.437-36.267 38.437ZM1838.05 101.978a76.004 76.004 0 0 0-33.92 7.257 76.01 76.01 0 0 0-27.15 21.571l19.84 23.558c11.47-12.089 22.01-19.219 36.89-19.219 17.35 0 26.03 9.3 26.03 24.488v6.2h-35.02c-32.24 0-52.7 15.188-52.7 40.606 0 23.558 17.67 41.846 48.36 41.846 7.92.256 15.8-1.126 23.16-4.06a57.453 57.453 0 0 0 19.61-12.988v13.639h35.03v-83.073c-.31-39.677-24.49-59.825-60.13-59.825Zm21.69 90.512c0 16.429-13.33 27.588-29.44 27.588-11.78 0-20.15-5.58-20.15-15.189s7.13-14.259 19.53-14.259h30.06v1.86Z" fill="#1D1130"/></svg>