<svg width="96" height="47" fill="none" xmlns="http://www.w3.org/2000/svg"><path stroke="url('#paint0_linear_504_163')" stroke-width="4.855" d="m.105 42.937 37.22 1.619"/><path d="M.032 35.14H4.99V20.892h11.36V16.8H4.99V6.306h14.682v-4.14H.032V35.14ZM24.794 35.14h4.717V0h-4.717v35.14ZM42.186 35.573c3.177 0 5.199-1.059 6.354-2.503h.289l.433 2.07h3.899V17.378c0-4.959-3.225-7.27-8.761-7.27-3.033 0-5.536.482-7.798 1.397v3.321c1.492-.337 3.514-.722 5.92-.722 4.333 0 5.873.819 5.873 4.477v2.118l-6.161.722c-4.766.626-7.654 2.792-7.654 7.172 0 4.766 3.177 6.98 7.606 6.98Zm1.251-3.465c-2.455 0-4.043-1.204-4.043-3.707 0-2.551 1.3-3.61 3.899-3.9l5.102-.529v6.547c-.962.915-2.936 1.589-4.958 1.589ZM59.342 35.14h4.717V16.367c1.685-1.108 3.947-1.782 6.258-1.782.481 0 1.3.049 1.925.145v-4.236c-.24-.144-.962-.193-1.54-.193-2.647 0-5.15 1.396-6.595 3.033h-.192V10.59h-4.573v24.55ZM86.758 35.573c4.091 0 6.931-1.251 8.472-2.358v-3.322c-2.263 1.011-4.38 1.781-7.606 1.781-4.814 0-7.557-1.877-7.894-7.51H96v-2.31c0-7.75-3.225-11.745-10.157-11.745-5.92 0-10.975 3.995-10.975 12.42v.625c0 7.702 3.947 12.42 11.89 12.42Zm-1.108-21.71c3.563 0 5.392 1.878 5.392 6.836H79.73c.385-5.488 3.321-6.836 5.92-6.836Z" fill="#FFF"/><defs><linearGradient id="paint0_linear_504_163" x1="37.22" y1="46.981" x2="37.087" y2="48.836" gradientUnits="userSpaceOnUse"><stop stop-color="#7EDA98"/><stop offset="1" stop-color="#95FF63"/></linearGradient></defs></svg>