<svg width="96" height="47" viewBox="0 0 96 47" fill="none" xmlns="http://www.w3.org/2000/svg">
<line x1="0.105438" y1="42.9373" x2="37.3251" y2="44.5556" stroke="url('#paint0_linear_504_163')" stroke-width="4.85474"></line>
<path d="M0.0322266 35.1401H4.99035V20.8915H16.3507V16.7999H4.99035V6.30596H19.6722V2.16617H0.0322266V35.1401Z" fill="#FFFFFF"></path>
<path d="M24.7935 35.1401H29.5109V0H24.7935V35.1401Z" fill="#FFFFFF"></path>
<path d="M42.1857 35.5733C45.3627 35.5733 47.3845 34.5143 48.5398 33.0702H48.8286L49.2618 35.1401H53.1609V17.3775C53.1609 12.4194 49.9357 10.1088 44.4 10.1088C41.3673 10.1088 38.8642 10.5902 36.6018 11.5048V14.8262C38.094 14.4893 40.1158 14.1042 42.5226 14.1042C46.855 14.1042 48.3954 14.9225 48.3954 18.5809V20.699L42.2338 21.421C37.4682 22.0468 34.58 24.213 34.58 28.5934C34.58 33.359 37.7571 35.5733 42.1857 35.5733ZM43.4372 32.1075C40.9822 32.1075 39.3937 30.904 39.3937 28.4009C39.3937 25.8496 40.6934 24.7906 43.2928 24.5018L48.3954 23.9723V30.5189C47.4326 31.4335 45.459 32.1075 43.4372 32.1075Z" fill="#FFFFFF"></path>
<path d="M59.3417 35.1401H64.0591V16.3666C65.7439 15.2595 68.0063 14.5855 70.3169 14.5855C70.7983 14.5855 71.6166 14.6337 72.2424 14.73V10.4939C72.0017 10.3495 71.2797 10.3013 70.702 10.3013C68.0545 10.3013 65.5514 11.6973 64.1072 13.334H63.9147V10.5902H59.3417V35.1401Z" fill="#FFFFFF"></path>
<path d="M86.7576 35.5733C90.8493 35.5733 93.6894 34.3218 95.2298 33.2146V29.8931C92.9673 30.904 90.8493 31.6742 87.6241 31.6742C82.8104 31.6742 80.0666 29.7969 79.7296 24.1648H95.9999V21.8542C95.9999 14.1042 92.7748 10.1088 85.843 10.1088C79.9222 10.1088 74.8678 14.1042 74.8678 22.5282V23.154C74.8678 30.8559 78.815 35.5733 86.7576 35.5733ZM85.6505 13.8635C89.2126 13.8635 91.0418 15.7408 91.0418 20.699H79.7296C80.1147 15.2113 83.0511 13.8635 85.6505 13.8635Z" fill="#FFFFFF"></path>
<defs>
<linearGradient id="paint0_linear_504_163" x1="37.2196" y1="46.9807" x2="37.0873" y2="48.8357" gradientUnits="userSpaceOnUse">
<stop stop-color="#7EDA98"></stop>
<stop offset="1" stop-color="#95FF63"></stop>
</linearGradient>
</defs>
</svg>
