<svg width="48" height="48" viewBox="0 0 48 48" fill="none" xmlns="http://www.w3.org/2000/svg">
<path d="M15.75 45C16.3416 45.0025 16.9279 44.8878 17.475 44.6625C18.0221 44.4372 18.5192 44.1059 18.9375 43.6875C19.3559 43.2692 19.6872 42.7721 19.9125 42.225C20.1378 41.6779 20.2525 41.0916 20.25 40.5V31.5" stroke="white" stroke-width="2" stroke-linecap="round" stroke-linejoin="round"></path>
<path d="M32.25 45C31.6583 45.0025 31.0721 44.8878 30.525 44.6625C29.9779 44.4372 29.4808 44.1059 29.0625 43.6875C28.6441 43.2692 28.3127 42.7721 28.0875 42.225C27.8622 41.6779 27.7475 41.0916 27.75 40.5V31.5" stroke="white" stroke-width="2" stroke-linecap="round" stroke-linejoin="round"></path>
<path d="M28.5 31.5H31.5C32.0916 31.4975 32.6779 31.6122 33.225 31.8375C33.7721 32.0628 34.2692 32.3941 34.6875 32.8125C35.1059 33.2308 35.4372 33.7279 35.6625 34.275C35.8878 34.8221 36.0025 35.4084 36 36V37.5C35.9975 38.0916 36.1122 38.6779 36.3375 39.225C36.5628 39.7721 36.8941 40.2691 37.3125 40.6875C37.7308 41.1059 38.2279 41.4372 38.775 41.6625C39.3221 41.8878 39.9084 42.0025 40.5 42" stroke="white" stroke-width="2" stroke-linecap="round" stroke-linejoin="round"></path>
<path d="M19.5 31.5H16.5C15.9084 31.4975 15.3221 31.6122 14.775 31.8375C14.2279 32.0628 13.7308 32.3941 13.3125 32.8125C12.8941 33.2308 12.5628 33.7279 12.3375 34.275C12.1122 34.8221 11.9975 35.4084 12 36V37.5C12.0025 38.0916 11.8878 38.6779 11.6625 39.225C11.4372 39.7721 11.1059 40.2691 10.6875 40.6875C10.2692 41.1059 9.77209 41.4372 9.22501 41.6625C8.67792 41.8878 8.09164 42.0025 7.5 42" stroke="white" stroke-width="2" stroke-linecap="round" stroke-linejoin="round"></path>
<path d="M20.9625 12C20.0813 10.621 18.8671 9.48591 17.4319 8.69949C15.9967 7.91306 14.3866 7.50056 12.75 7.5C12.0223 8.75958 11.5857 10.166 11.4721 11.6163C11.3586 13.0665 11.571 14.5238 12.0938 15.8812C11.0685 17.3926 10.5139 19.1738 10.5 21V22.5C10.5 24.8869 11.4482 27.1761 13.136 28.864C14.8239 30.5518 17.1131 31.5 19.5 31.5H28.5C30.8869 31.5 33.1761 30.5518 34.864 28.864C36.5518 27.1761 37.5 24.8869 37.5 22.5V21C37.4861 19.1738 36.9315 17.3926 35.9062 15.8812C36.429 14.5238 36.6414 13.0665 36.5279 11.6163C36.4143 10.166 35.9777 8.75958 35.25 7.5C33.6134 7.50056 32.0033 7.91306 30.5681 8.69949C29.1329 9.48591 27.9187 10.621 27.0375 12H20.9625Z" stroke="white" stroke-width="2" stroke-linecap="round" stroke-linejoin="round"></path>
</svg>
