<svg width="48" height="48" fill="none" xmlns="http://www.w3.org/2000/svg"><path d="M15.75 45a4.48 4.48 0 0 0 4.5-4.5v-9M32.25 45a4.48 4.48 0 0 1-4.5-4.5v-9M28.5 31.5h3A4.48 4.48 0 0 1 36 36v1.5a4.48 4.48 0 0 0 4.5 4.5M19.5 31.5h-3A4.48 4.48 0 0 0 12 36v1.5A4.48 4.48 0 0 1 7.5 42" stroke="#fff" stroke-width="2" stroke-linecap="round" stroke-linejoin="round"/><path d="M20.962 12a9.75 9.75 0 0 0-8.212-4.5 9.75 9.75 0 0 0-.656 8.381A9.243 9.243 0 0 0 10.5 21v1.5a9 9 0 0 0 9 9h9a9 9 0 0 0 9-9V21a9.243 9.243 0 0 0-1.594-5.119A9.75 9.75 0 0 0 35.25 7.5a9.75 9.75 0 0 0-8.212 4.5h-6.076Z" stroke="#fff" stroke-width="2" stroke-linecap="round" stroke-linejoin="round"/></svg>