<svg width="48" height="48" fill="none" xmlns="http://www.w3.org/2000/svg"><path d="M39.75 6.75H8.25a1.5 1.5 0 0 0-1.5 1.5v31.5a1.5 1.5 0 0 0 1.5 1.5h31.5a1.5 1.5 0 0 0 1.5-1.5V8.25a1.5 1.5 0 0 0-1.5-1.5ZM22.5 21v12M16.5 21v12" stroke="#fff" stroke-width="2" stroke-linecap="round" stroke-linejoin="round"/><path d="M22.5 26.25a5.25 5.25 0 1 1 10.5 0V33" stroke="#fff" stroke-width="2" stroke-linecap="round" stroke-linejoin="round"/><path d="M16.5 17.25a2.25 2.25 0 1 0 0-4.5 2.25 2.25 0 0 0 0 4.5Z" fill="#fff"/></svg>