<svg width="86" height="16" fill="none" xmlns="http://www.w3.org/2000/svg"><path d="M8.661 1.778h3.565l-.437 3.555H4.66l-.106.89h7.128l-.989 8H7.13L6.906 16H3.342l.222-1.778H0l.437-3.555h7.128l.107-.89H.544l.989-8h3.564L5.311 0h3.564l-.214 1.778ZM15.585 10.667h7.13l-.438 3.555H11.584l1.533-12.444H23.81l-.436 3.555h-7.13l-.106.89h7.129l-.446 3.555h-7.129l-.107.889ZM35.394 1.778l-.436 3.555h-7.129l-.66 5.334h7.13l-.437 3.555H23.168l1.533-12.444h10.693ZM36.285 1.778h3.565l-1.096 8.889h3.564l1.096-8.89h3.565l-1.533 12.445H34.753l1.532-12.444ZM58.563 1.778l-.99 8H55.56l2.023 4.444h-4.117l-2.023-4.444h-.998l-.544 4.444h-3.564L47.87 1.778h10.693Zm-4.001 3.555h-3.564l-.107.89h3.564l.107-.89ZM61.922 10.667h7.13l-.438 3.555H57.922l1.533-12.444h10.693l-.436 3.555h-7.13l-.106.89h7.129l-.446 3.555H62.03l-.107.889ZM70.495 6.222h3.564l-.552 4.445h3.564l.66-5.334H70.6l.437-3.555h10.694l-1.533 12.444H69.506l.989-8ZM84.654 14.222H81.09l.436-3.555h3.565l-.437 3.555Z" fill="#FFF"/></svg>