<svg width="86" height="16" viewBox="0 0 86 16" fill="none" xmlns="http://www.w3.org/2000/svg">
<path d="M8.66147 1.77778H12.2259L11.7892 5.33333H4.66044L4.55351 6.22222H11.6823L10.6932 14.2222H7.12878L6.90601 16H3.34162L3.56439 14.2222H0L0.436638 10.6667H7.56542L7.67235 9.77778H0.54357L1.53269 1.77778H5.09708L5.31094 0H8.87533L8.66147 1.77778Z" fill="#FFFFFF"></path>
<path d="M15.5853 10.6667H22.7141L22.2774 14.2222H11.5843L13.117 1.77778H23.8101L23.3735 5.33333H16.2447L16.1378 6.22222H23.2666L22.821 9.77778H15.6922L15.5853 10.6667Z" fill="#FFFFFF"></path>
<path d="M35.3944 1.77778L34.9578 5.33333H27.829L27.1696 10.6667H34.2983L33.8617 14.2222H23.1685L24.7012 1.77778H35.3944Z" fill="#FFFFFF"></path>
<path d="M36.2855 1.77778H39.8499L38.7538 10.6667H42.3182L43.4143 1.77778H46.9787L45.446 14.2222H34.7528L36.2855 1.77778Z" fill="#FFFFFF"></path>
<path d="M58.5629 1.77778L57.5738 9.77778H55.5599L57.5827 14.2222H53.4659L51.4431 9.77778H50.445L49.9015 14.2222H46.3371L47.8698 1.77778H58.5629ZM54.5619 5.33333H50.9975L50.8906 6.22222H54.455L54.5619 5.33333Z" fill="#FFFFFF"></path>
<path d="M61.9224 10.6667H69.0512L68.6145 14.2222H57.9213L59.454 1.77778H70.1472L69.7106 5.33333H62.5818L62.4749 6.22222H69.6036L69.1581 9.77778H62.0293L61.9224 10.6667Z" fill="#FFFFFF"></path>
<path d="M70.4947 6.22222H74.0591L73.5066 10.6667H77.071L77.7304 5.33333H70.6017L71.0383 1.77778H81.7315L80.1988 14.2222H69.5056L70.4947 6.22222Z" fill="#FFFFFF"></path>
<path d="M84.6543 14.2222H81.0899L81.5265 10.6667H85.0909L84.6543 14.2222Z" fill="#FFFFFF"></path>
</svg>
