<svg version="1.1" baseProfile="tiny" id="vectorized" xmlns="http://www.w3.org/2000/svg" x="0" y="0" viewBox="0 0 180 34" xml:space="preserve"><path fill="#FA5B35" d="M16.451 2.055c7.861 0 14.113 6.252 14.113 14.113 0 7.86-6.252 14.113-14.113 14.113S2.338 24.028 2.338 16.167c0-7.86 6.252-14.112 14.113-14.112zm7.041 10.562V10.28H9.409v2.337h14.083zm-2.337 9.438h2.337v-7.071H9.409v7.071h2.337v-2.671c0-.758.183-1.184.456-1.487.303-.364.759-.577 1.305-.577.546 0 1.001.212 1.305.577.273.303.456.729.456 1.487v2.671h2.367v-2.671c0-.758.182-1.184.456-1.487.303-.364.758-.577 1.305-.577s1.001.212 1.305.577c.273.303.456.729.456 1.487v2.671z"/><path fill="#FFF" d="M39.161 10.856c0 2.549 3.642 3.065 6.374 4.643 1.699.971 3.096 2.55 3.096 5.22 0 3.824-3.126 6.222-6.586 6.222s-5.949-1.669-6.92-2.731l1.366-2.883h.121c1.153 1.123 2.914 2.186 5.189 2.186 1.487 0 3.096-.88 3.096-2.61 0-2.58-3.642-3.096-6.373-4.674-1.7-.971-3.096-2.549-3.096-5.22 0-3.824 3.156-6.222 6.677-6.222 3.308 0 5.554 1.669 6.525 2.58l-1.366 2.883h-.122c-1.184-1.062-2.671-2.033-4.734-2.033-1.638-.001-3.247.879-3.247 2.639zm16.753 15.63h-2.428l-4.31-12.14h3.582l2.125 6.161h.121l3.005-8.589h2.428l3.157 8.68h.122l3.035-8.68h3.399l-5.189 14.568h-2.367l-3.339-9.166h-.121l-3.22 9.166zM75.247 9.339h-3.612v-3.49h3.612v3.49zm-.061 17.147h-3.49V11.918h3.49v14.568zm8.133.455c-2.063 0-4.066-.789-5.463-2.125l.971-2.61h.122c1.093.971 2.488 1.73 4.097 1.73 1.214 0 2.003-.516 2.003-1.426 0-.941-1.002-1.305-2.246-1.7-2.003-.637-4.644-1.609-4.644-4.644 0-2.792 2.185-4.704 5.311-4.704 1.7 0 3.43.607 4.856 1.73l-.971 2.64h-.122c-1.032-.819-2.367-1.366-3.49-1.366-1.365 0-2.154.516-2.154 1.426 0 .941 1.001 1.305 2.246 1.7 2.003.638 4.644 1.608 4.644 4.644 0 2.793-2.185 4.705-5.16 4.705zm12.474 0c-2.063 0-4.066-.789-5.463-2.125l.972-2.61h.121c1.093.971 2.489 1.73 4.097 1.73 1.214 0 2.003-.516 2.003-1.426 0-.941-1.002-1.305-2.246-1.7-2.003-.637-4.644-1.609-4.644-4.644 0-2.792 2.186-4.704 5.312-4.704 1.699 0 3.429.607 4.855 1.73l-.971 2.64h-.122c-1.032-.819-2.368-1.366-3.49-1.366-1.366 0-2.155.516-2.155 1.426 0 .941 1.001 1.305 2.246 1.7 2.003.638 4.644 1.608 4.644 4.644.001 2.793-2.184 4.705-5.159 4.705zm18.028-14.142v-.88h3.187V32.86h-3.49v-7.436c-1.002.94-2.458 1.517-3.854 1.517-4.127 0-6.768-3.187-6.768-7.587 0-4.127 2.823-7.891 7.132-7.891 1.335 0 2.641.516 3.672 1.335h.121zm-.303 2.913c-.729-.668-1.882-1.062-2.944-1.062-2.488 0-4.097 1.942-4.097 4.674 0 2.458 1.396 4.431 3.885 4.431a4.249 4.249 0 0 0 3.156-1.366v-6.677zm6.434-3.794h3.49v8.71c0 1.274.212 1.821.577 2.276.455.546 1.184.91 2.003.91s1.548-.364 2.003-.91c.364-.456.577-1.002.577-2.276v-8.71h3.49v8.346c0 2.367-.638 3.854-1.73 4.917-1.092 1.093-2.64 1.76-4.491 1.76-1.7 0-3.187-.637-4.249-1.699-1.062-1.062-1.669-2.58-1.669-4.978v-8.346zm14.537 7.436c0-4.644 3.156-7.891 7.587-7.891s7.587 3.247 7.587 7.587c0 4.644-3.156 7.891-7.587 7.891s-7.587-3.247-7.587-7.587zm7.588-4.704c-2.337 0-4.006 1.973-4.006 4.552 0 2.58 1.669 4.553 4.006 4.553s4.006-1.973 4.006-4.553c0-2.579-1.669-4.552-4.006-4.552zm19.423 8.983v2.701c-.94.395-1.973.607-3.125.607-1.549 0-2.701-.455-3.49-1.244-.851-.85-1.275-2.094-1.275-4.31v-6.434h-3.338v-3.035h3.338V7.062h3.49v4.856h4.4v3.035h-4.4v6.889c0 .759.152 1.184.395 1.457.425.485 1.123.607 1.882.607.789 0 1.729-.182 2.003-.273h.12zm12.96-1.396 1.305 2.428c-1.365 1.457-3.399 2.276-5.706 2.276-4.248 0-7.436-3.004-7.436-7.587 0-4.188 2.55-7.891 7.072-7.891 3.854 0 6.434 3.065 6.434 7.284V19.9h-9.863c.091 2.276 1.669 3.976 3.976 3.976 1.487 0 2.853-.607 4.097-1.639h.121zm-1.821-5.068c-.03-1.366-1.093-2.731-2.883-2.731-1.761 0-2.944 1.184-3.309 2.731h6.192z"/></svg>