<svg width="48" height="48" viewBox="0 0 48 48" fill="none" xmlns="http://www.w3.org/2000/svg">
<path d="M16.5 25.2938L33.3563 40.125C33.5511 40.2975 33.7874 40.4163 34.042 40.4698C34.2966 40.5233 34.5607 40.5097 34.8085 40.4303C35.0562 40.3508 35.2791 40.2083 35.4551 40.0167C35.6311 39.8252 35.7543 39.5911 35.8125 39.3375L42.8625 8.55001C42.9216 8.28487 42.9076 8.00865 42.822 7.75084C42.7364 7.49303 42.5824 7.26331 42.3764 7.0862C42.1704 6.9091 41.9202 6.79125 41.6525 6.74525C41.3847 6.69925 41.1095 6.72682 40.8563 6.82501L6.24376 20.4188C4.85626 20.9625 5.04376 22.9875 6.50626 23.2875L16.5 25.2938Z" stroke="white" stroke-width="2" stroke-linecap="round" stroke-linejoin="round"></path>
<path d="M16.5 25.2938L42.0188 6.86252" stroke="white" stroke-width="2" stroke-linecap="round" stroke-linejoin="round"></path>
<path d="M24.9187 32.7L19.0687 38.55C18.86 38.7619 18.5931 38.907 18.3017 38.9668C18.0103 39.0266 17.7078 38.9985 17.4324 38.886C17.1571 38.7734 16.9215 38.5816 16.7554 38.3348C16.5894 38.088 16.5005 37.7974 16.5 37.5V25.2937" stroke="white" stroke-width="2" stroke-linecap="round" stroke-linejoin="round"></path>
</svg>
