<svg width="1521" height="468" fill="none" xmlns="http://www.w3.org/2000/svg"><path d="M369.073 381.31 353.982 468H25.201l15.09-86.69h328.782ZM422.05 63.124 82.994 468H.157l11.238-64.215L353.019.515h79.948L422.05 63.123ZM397.648.514l-15.09 87.012H64.372L79.784.514h317.864ZM728.279 381.31 713.188 468H470.777l15.09-86.69h242.412ZM591.501.514 510.269 468H400.461L481.372.514h110.129Zm139.347 185.582-14.449 83.8H505.132l14.769-83.8h210.947ZM795.063.514l-15.091 87.012H536.597L552.009.514h243.054Zm266.737 0L980.888 468H870.759L951.992.514H1061.8Zm136.46 0-15.09 87.012H803.334L818.745.514h379.515Zm178.44 103.708L1204.6 468h-121.69L1330.78.514h77.7l-31.78 103.708ZM1406.24 468l-47.52-375.016 2.57-92.47h73.2L1520.86 468h-114.62Zm25.04-174.344-15.41 87.011h-233.42l15.41-87.011h233.42Z" fill="url('#paint0_linear_1098_3732')"/><defs><linearGradient id="paint0_linear_1098_3732" x1="13" y1="243.5" x2="1578.62" y2="243.5" gradientUnits="userSpaceOnUse"><stop stop-color="#B224EF"/><stop offset="1" stop-color="#7579FF"/></linearGradient></defs></svg>