<?xml version="1.0" encoding="UTF-8"?> <svg xmlns="http://www.w3.org/2000/svg" width="2020" height="422" viewBox="0 0 2020 422" fill="none"> <path d="M130.706 362L185.853 411.687C192.456 418.269 201.356 421.972 210.639 422C219.909 421.913 228.788 418.218 235.424 411.687L290.571 362C296.19 356.244 303.66 352.698 311.639 352H109.639C117.542 352.972 124.926 356.477 130.706 362V362Z" fill="white"></path> <path d="M0 62C0 27.7584 27.7583 0 62 0H1958C1992.24 0 2020 27.7583 2020 62V290C2020 324.242 1992.24 352 1958 352H62C27.7583 352 0 324.242 0 290V62Z" fill="white"></path> <path d="M396.052 244.877H358.235V137.317H320.729L320.419 148.166C318.869 217.91 306.78 247.667 271.753 247.667C266.904 247.542 262.1 246.707 257.494 245.187V213.57C259.223 213.966 260.99 214.174 262.764 214.19C278.572 214.19 284.152 192.802 284.772 138.557L285.082 105.39H396.052V244.877Z" fill="#1D1130"></path> <path d="M543.91 137.322H479.125V244.883H441.309V105.085H543.91V137.322Z" fill="#1D1130"></path> <path d="M1059.7 244.877H1021.58V169.244L943.463 248.287H931.064V105.079H968.881V181.333L1047.3 101.979H1059.7V244.877Z" fill="#1D1130"></path> <path d="M1212.83 137.322H1169.74V244.883H1131.93V137.322H1088.84V105.085H1212.83V137.322Z" fill="#1D1130"></path> <path d="M1398.5 244.877H1360.38V177.613L1326.28 215.74H1313.57L1280.1 177.923V244.877H1242.28V101.979H1254.68L1320.08 175.133L1386.11 101.979H1398.5V244.877Z" fill="#1D1130"></path> <path d="M1572.09 244.877H1533.96V169.244L1455.85 248.287H1443.45V105.079H1481.27V181.333L1559.69 101.979H1572.09V244.877Z" fill="#1D1130"></path> <path d="M1710.34 244.883L1654.85 170.799V244.883H1617.04V105.085H1654.85V170.179L1707.86 105.085H1750.94L1698.25 168.939L1755.28 244.883H1710.34Z" fill="#1D1130"></path> <path d="M636.902 101.979C594.745 101.979 562.198 133.907 562.198 174.823C562.198 215.74 594.745 247.977 636.592 247.977C678.438 247.977 711.915 215.43 711.915 174.823C711.915 134.217 678.438 101.979 636.902 101.979ZM636.902 212.95C616.134 212.95 600.635 197.141 600.635 175.133C600.635 153.125 615.824 136.696 636.902 136.696C657.36 136.696 673.169 153.125 673.169 175.133C673.169 197.141 657.36 212.95 636.902 212.95V212.95Z" fill="#1D1130"></path> <path d="M170.391 101.979C158.679 101.751 147.073 104.235 136.48 109.236C125.887 114.237 116.594 121.619 109.327 130.807L129.165 154.365C140.634 142.276 151.173 135.146 166.052 135.146C183.41 135.146 192.09 144.445 192.09 159.634V165.834H157.063C124.825 165.834 104.367 181.022 104.367 206.44C104.367 229.998 122.036 248.286 152.723 248.286C160.643 248.542 168.53 247.16 175.89 244.226C183.251 241.292 189.926 236.871 195.499 231.238V244.877H230.526V161.804C230.216 122.127 206.038 101.979 170.391 101.979ZM192.09 192.491C192.09 208.92 178.761 220.079 162.642 220.079C150.863 220.079 142.494 214.499 142.494 204.89C142.494 195.281 149.623 190.631 162.022 190.631H192.09V192.491Z" fill="#1D1130"></path> <path d="M826.914 101.979C807.696 101.979 791.577 109.419 781.968 122.438V105.079H746.941V295.713H785.378V231.238C795.297 242.087 809.866 248.287 827.224 248.287C866.591 248.287 895.108 216.979 895.108 174.823C895.108 132.667 866.591 101.979 826.914 101.979ZM820.095 213.57C802.427 213.57 784.758 201.481 784.758 174.823C784.758 148.165 802.427 136.386 820.095 136.386C840.243 136.386 856.362 151.265 856.362 175.133C856.362 199.001 839.623 213.57 820.095 213.57Z" fill="#1D1130"></path> <path d="M1838.05 101.978C1826.33 101.75 1814.73 104.234 1804.13 109.235C1793.54 114.236 1784.25 121.618 1776.98 130.806L1796.82 154.364C1808.29 142.275 1818.83 135.145 1833.71 135.145C1851.06 135.145 1859.74 144.445 1859.74 159.633V165.833H1824.72C1792.48 165.833 1772.02 181.021 1772.02 206.439C1772.02 229.997 1789.69 248.285 1820.38 248.285C1828.3 248.541 1836.18 247.159 1843.54 244.225C1850.91 241.291 1857.58 236.87 1863.15 231.237V244.876H1898.18V161.803C1897.87 122.126 1873.69 101.978 1838.05 101.978ZM1859.74 192.49C1859.74 208.919 1846.41 220.078 1830.3 220.078C1818.52 220.078 1810.15 214.498 1810.15 204.889C1810.15 195.28 1817.28 190.63 1829.68 190.63H1859.74V192.49Z" fill="#1D1130"></path> </svg> 