<svg width="623" height="122" viewBox="0 0 623 122" fill="none" xmlns="http://www.w3.org/2000/svg">
<path d="M376.147 18.193C372.202 24.0975 369.484 30.8237 366.203 37.1707C365.592 38.3558 364.902 39.4988 364.248 40.6629C363.806 40.5154 363.369 40.3626 362.926 40.2152C362.926 28.8907 362.926 17.5609 362.926 5.73074C349.769 11.2771 336.553 13.1417 323.096 13.3682C322.105 16.2599 322.611 17.6768 325.745 17.5978C330.38 17.4766 335.021 17.5662 339.803 17.5662C339.898 19.0568 340.014 20.0997 340.019 21.1373C340.03 49.7909 340.035 78.4445 340.019 107.098C340.019 111.807 337.18 114.546 332.345 114.557C327.015 114.572 321.684 114.567 316.354 114.557C310.797 114.546 308.074 111.865 308.074 106.366C308.063 84.644 308.158 62.9168 308.037 41.1949C307.947 25.309 300.257 14.2004 285.172 9.20183C269.691 4.07684 253.943 4.02943 238.583 9.83916C234.343 11.4404 230.235 14.1214 226.88 17.1975C214.043 28.9539 217.641 44.9398 215.834 60.2358C224.062 57.4126 231.52 54.9897 238.836 52.2033C239.937 51.7819 240.969 49.6909 241.043 48.3214C241.396 41.9428 241.027 35.5115 241.623 29.1593C242.402 20.8108 246.073 14.0529 254.554 11.1349C267.927 6.53663 280.184 14.3005 282.175 29.3384C283.407 38.6508 283.149 48.1634 283.56 57.6233C281.695 58.1289 280.437 58.5029 279.172 58.8137C268.322 61.4947 257.403 63.9176 246.642 66.9041C237.14 69.543 227.917 73.0088 220.064 79.3347C209.066 88.1941 206.527 109.374 223.74 117.122C245.167 126.766 269.223 120.324 282.185 101.009C282.717 100.219 283.644 99.6977 284.392 99.0499C284.719 99.2184 285.04 99.387 285.367 99.5555C285.367 105.855 285.367 112.155 285.367 118.586C325.16 118.586 364.422 118.586 403.805 118.586C403.805 117.206 403.805 116.005 403.805 114.562C393.355 114.562 383.242 114.572 373.124 114.557C368.078 114.551 364.991 111.512 364.981 106.529C364.965 95.7315 364.917 84.939 364.996 74.1412C365.044 67.3518 365.049 60.5413 365.539 53.7782C366.013 47.2205 368.594 41.4477 373.455 36.7967C378.112 32.3459 383.821 31.0449 389.984 31.0186C396.873 30.987 403.763 31.0133 410.779 31.0133C412.243 22.4331 413.618 14.3637 415.087 5.75181C409.104 6.11525 403.558 6.46815 398.001 6.77892C388.983 7.28984 381.177 10.6714 376.147 18.193ZM278.951 97.0115C273.473 109.479 263.423 116.089 251.251 114.888C243.877 114.161 239.663 110.295 238.262 103.042C235.887 90.7329 239.863 80.9833 250.313 74.1307C260.142 67.6836 271.319 64.7761 283.075 62.3058C283.312 74.4836 283.781 86.0188 278.951 97.0115Z" fill="#F48774"/>
<path d="M201.876 114.567C196.951 114.541 194.118 111.697 194.118 106.709C194.102 91.3863 194.165 76.064 194.091 60.7417C194.054 53.02 194.313 45.2456 193.486 37.5923C191.953 23.3866 184.995 12.5467 171.016 7.86418C154.113 2.19667 129.826 7.18998 119.049 23.5657C117.385 26.094 116.116 25.9939 114.967 23.1812C112.813 17.914 109.026 14.09 104.185 11.251C85.5658 0.321543 57.4126 5.57821 43.8495 22.4649C42.9172 23.6237 41.6952 24.5507 40.6049 25.5883C40.2467 25.3618 39.8833 25.1354 39.5251 24.9089C39.5251 18.7146 39.5251 12.5204 39.5251 5.89952C26.4045 10.6769 13.4577 13.3895 0 13.1999C0 14.5325 0 15.8651 0 17.1977C5.5411 17.1977 11.0822 17.1977 16.9499 17.1977C16.9499 19.4046 16.9499 20.7214 16.9499 22.033C16.9499 50.1388 16.9499 78.2499 16.9499 106.356C16.9499 111.876 14.2689 114.53 8.7699 114.573C5.8466 114.599 2.9233 114.709 0 114.783C0 116.116 0 117.448 0 118.781C70.3172 118.781 140.634 118.781 211.336 118.781C211.252 117.153 211.189 115.953 211.115 114.562C207.723 114.567 204.8 114.578 201.876 114.567ZM93.0347 106.809C93.0242 111.749 90.1693 114.557 85.1707 114.562C73.309 114.573 61.4472 114.578 49.5908 114.562C44.6027 114.557 41.7163 111.707 41.711 106.777C41.7005 87.1883 41.6478 67.5943 41.7216 48.0056C41.7848 31.3507 50.9866 18.2142 64.9868 14.5377C75.5634 11.7619 84.86 15.5332 89.1633 25.5199C91.4177 30.7449 92.5501 36.7337 92.8767 42.4539C93.4561 52.6829 93.04 62.9697 93.04 73.2302C93.04 84.423 93.0505 95.6159 93.0347 106.809ZM169.351 106.788C169.341 111.691 166.417 114.557 161.445 114.562C149.578 114.578 137.716 114.578 125.849 114.562C120.846 114.557 117.806 111.481 117.801 106.435C117.791 87.636 117.806 68.8374 117.796 50.044C117.791 41.3268 119.487 33.1046 124.696 25.878C129.447 19.2888 135.778 15.0803 143.842 14.0374C157.363 12.2886 167.639 21.1165 168.64 36.4388C169.462 49.0379 169.372 95.9898 169.351 106.788Z" fill="#F48774"/>
<path d="M562.432 0.00526833C528.98 0.00526833 501.865 27.1209 501.865 60.5729C501.865 72.2081 505.162 83.0691 510.851 92.2973C502.212 101.81 489.75 107.778 475.892 107.778C449.82 107.778 428.682 86.6403 428.682 60.5676C428.682 34.4949 449.82 13.3576 475.892 13.3576C484.03 13.3576 491.683 15.4171 498.367 19.041L505.473 7.71646C496.724 2.80742 486.637 0 475.892 0C442.44 0 415.325 27.1156 415.325 60.5676C415.325 94.0197 442.44 121.135 475.892 121.135C509.344 121.135 536.46 94.0197 536.46 60.5676C536.46 48.9271 533.168 38.0661 527.474 28.838C536.112 19.3307 548.574 13.3576 562.432 13.3576C588.505 13.3576 609.642 34.4949 609.642 60.5676C609.642 86.6403 588.505 107.778 562.432 107.778C554.59 107.778 547.2 105.855 540.695 102.468L534.005 114.051C542.486 118.565 552.156 121.135 562.432 121.135C595.884 121.135 623 94.0197 623 60.5676C623 27.1209 595.884 0.00526833 562.432 0.00526833ZM519.168 79.4558C516.639 73.6724 515.228 67.2886 515.228 60.5729C515.228 53.8572 516.639 47.4681 519.168 41.6847C521.696 47.4681 523.102 53.8572 523.102 60.5729C523.102 67.2886 521.691 73.6724 519.168 79.4558Z" fill="#F48774"/>
</svg>
