<svg width="1521" height="468" viewBox="0 0 1521 468" fill="none" xmlns="http://www.w3.org/2000/svg">
<path d="M369.073 381.31L353.982 468H25.2009L40.2914 381.31H369.073ZM422.05 63.1239L82.9944 468H0.156982L11.3946 403.785L353.019 0.51416H432.967L422.05 63.1239ZM397.648 0.51416L382.558 87.5256H64.3721L79.7837 0.51416H397.648ZM728.279 381.31L713.188 468H470.777L485.867 381.31H728.279ZM591.501 0.51416L510.269 468H400.461L481.372 0.51416H591.501ZM730.848 186.096L716.399 269.896H505.132L519.901 186.096H730.848ZM795.063 0.51416L779.972 87.5256H536.597L552.009 0.51416H795.063ZM1061.8 0.51416L980.888 468H870.759L951.992 0.51416H1061.8ZM1198.26 0.51416L1183.17 87.5256H803.334L818.745 0.51416H1198.26ZM1376.7 104.222L1204.6 468H1082.91L1330.78 0.51416H1408.48L1376.7 104.222ZM1406.24 468L1358.72 92.9839L1361.29 0.51416H1434.49L1520.86 468H1406.24ZM1431.28 293.656L1415.87 380.667H1182.45L1197.86 293.656H1431.28Z" fill="url(#paint0_linear_1098_3732)"/>
<defs>
<linearGradient id="paint0_linear_1098_3732" x1="13" y1="243.5" x2="1578.62" y2="243.5" gradientUnits="userSpaceOnUse">
<stop stop-color="#B224EF"/>
<stop offset="1" stop-color="#7579FF"/>
</linearGradient>
</defs>
</svg>
