<svg width="623" height="122" fill="none" xmlns="http://www.w3.org/2000/svg"><path d="M376.147 18.193c-3.945 5.904-6.663 12.63-9.944 18.978-.611 1.185-1.301 2.328-1.955 3.492-.442-.148-.879-.3-1.322-.448V5.731c-13.157 5.546-26.373 7.41-39.83 7.637-.991 2.892-.485 4.309 2.649 4.23 4.635-.121 9.276-.032 14.058-.032.095 1.49.211 2.534.216 3.571.011 28.654.016 57.308 0 85.961 0 4.709-2.839 7.448-7.674 7.459-5.33.015-10.661.01-15.991 0-5.557-.011-8.28-2.692-8.28-8.191-.011-21.722.084-43.45-.037-65.171-.09-15.886-7.78-26.995-22.865-31.993-15.481-5.125-31.229-5.173-46.589.637-4.24 1.601-8.348 4.282-11.703 7.359-12.837 11.756-9.239 27.742-11.046 43.038 8.228-2.823 15.686-5.246 23.002-8.033 1.101-.421 2.133-2.512 2.207-3.882.353-6.378-.016-12.81.58-19.162.779-8.348 4.45-15.106 12.931-18.024 13.373-4.598 25.63 3.165 27.621 18.203 1.232 9.313.974 18.825 1.385 28.285-1.865.506-3.123.88-4.388 1.19-10.85 2.682-21.769 5.105-32.53 8.091-9.502 2.639-18.725 6.105-26.578 12.43-10.998 8.86-13.537 30.04 3.676 37.788 21.427 9.644 45.483 3.202 58.445-16.113.532-.79 1.459-1.311 2.207-1.96.327.17.648.338.975.506v19.031h118.438v-4.024c-10.45 0-20.563.01-30.681-.005-5.046-.006-8.133-3.045-8.143-8.028-.016-10.797-.064-21.59.015-32.388.048-6.79.053-13.6.543-20.363.474-6.557 3.055-12.33 7.916-16.981 4.657-4.451 10.366-5.752 16.529-5.778 6.889-.032 13.779-.006 20.795-.006l4.308-25.261c-5.983.363-11.529.716-17.086 1.027-9.018.51-16.824 3.892-21.854 11.414Zm-97.196 78.819c-5.478 12.467-15.528 19.077-27.7 17.876-7.374-.727-11.588-4.593-12.989-11.846-2.375-12.31 1.601-22.059 12.051-28.911 9.829-6.447 21.006-9.355 32.762-11.825.237 12.178.706 23.713-4.124 34.706ZM201.876 114.567c-4.925-.026-7.758-2.87-7.758-7.858-.016-15.323.047-30.645-.027-45.967-.037-7.722.222-15.496-.605-23.15-1.533-14.205-8.491-25.045-22.47-29.728-16.903-5.667-41.19-.674-51.967 15.702-1.664 2.528-2.933 2.428-4.082-.385-2.154-5.267-5.941-9.091-10.782-11.93C85.565.321 57.413 5.578 43.849 22.465c-.932 1.159-2.154 2.086-3.244 3.123-.358-.226-.722-.453-1.08-.68V5.9C26.405 10.677 13.458 13.39 0 13.2v3.998h16.95V106.356c0 5.52-2.681 8.174-8.18 8.217-2.923.026-5.847.136-8.77.21v3.998h211.336c-.084-1.628-.147-2.828-.221-4.219-3.392.005-6.315.016-9.239.005Zm-108.841-7.758c-.01 4.94-2.866 7.748-7.864 7.753-11.862.011-23.724.016-35.58 0-4.988-.005-7.875-2.855-7.88-7.785-.01-19.589-.063-39.183.01-58.771.064-16.655 9.266-29.792 23.266-33.468 10.576-2.776 19.873.995 24.176 10.982 2.255 5.225 3.387 11.214 3.714 16.934.58 10.229.163 20.516.163 30.776 0 11.193.01 22.386-.005 33.579Zm76.316-.021c-.01 4.903-2.934 7.769-7.906 7.774-11.867.016-23.729.016-35.596 0-5.003-.005-8.043-3.081-8.048-8.127-.01-18.799.005-37.598-.005-56.391-.005-8.717 1.691-16.94 6.9-24.166 4.751-6.59 11.082-10.798 19.146-11.84 13.521-1.75 23.797 7.078 24.798 22.4.822 12.6.732 59.552.711 70.35ZM562.432.005c-33.452 0-60.567 27.116-60.567 60.568a60.254 60.254 0 0 0 8.986 31.724c-8.639 9.513-21.101 15.481-34.959 15.481-26.072 0-47.21-21.138-47.21-47.21 0-26.073 21.138-47.21 47.21-47.21 8.138 0 15.791 2.06 22.475 5.683l7.106-11.325A60.263 60.263 0 0 0 475.892 0c-33.452 0-60.567 27.116-60.567 60.568s27.115 60.567 60.567 60.567S536.46 94.02 536.46 60.568a60.213 60.213 0 0 0-8.986-31.73c8.638-9.507 21.1-15.48 34.958-15.48 26.073 0 47.21 21.137 47.21 47.21 0 26.072-21.137 47.21-47.21 47.21a46.928 46.928 0 0 1-21.737-5.31l-6.69 11.583a60.315 60.315 0 0 0 28.427 7.084c33.452 0 60.568-27.115 60.568-60.567C623 27.12 595.884.005 562.432.005Zm-43.264 79.45a47.01 47.01 0 0 1-3.94-18.882 47.035 47.035 0 0 1 3.94-18.888 47.048 47.048 0 0 1 3.934 18.888c0 6.716-1.411 13.1-3.934 18.883Z" fill="#F48774"/></svg>